<svg width="50" height="53" viewBox="0 0 50 53" fill="none" xmlns="http://www.w3.org/2000/svg">
<path d="M29.0625 29.8137H28.5833C28.2083 30.0566 28.0416 30.5204 28.2083 30.9179L30 35.5776C31.7291 34.4072 33.0416 32.6625 33.7291 30.6087L29.0833 29.8137H29.0625ZM21.875 30.4541C21.8214 30.2739 21.7166 30.1156 21.5749 30.0009C21.4331 29.8863 21.2614 29.8209 21.0833 29.8137H20.9166L16.2916 30.6308C16.9791 32.6625 18.2916 34.3851 20.0208 35.5555L21.7916 30.9841V30.9179C21.875 30.8074 21.875 30.6087 21.875 30.4541ZM25.6875 32.2429C25.5864 32.0514 25.4186 31.9095 25.22 31.8476C25.0213 31.7856 24.8078 31.8086 24.625 31.9117C24.4791 32.0221 24.375 32.0883 24.3125 32.2429H24.2916L22.0208 36.5935C23.6458 37.1677 25.3958 37.2781 27.0833 36.8585C27.375 36.7923 27.6875 36.7039 27.9791 36.5935L25.7083 32.2429H25.6875ZM32.875 22.1504L29.375 25.3968L29.3958 25.4631C29.3164 25.5331 29.2511 25.6194 29.2038 25.7167C29.1565 25.814 29.1281 25.9204 29.1203 26.0296C29.1125 26.1388 29.1255 26.2485 29.1585 26.3522C29.1915 26.456 29.2439 26.5517 29.3125 26.6335C29.4166 26.766 29.5416 26.8544 29.6875 26.8985L29.7083 26.9206L34.2291 28.2899C34.375 26.1477 33.9375 23.9834 32.875 22.1504ZM26.3958 22.5038C26.4166 22.9676 26.7708 23.3209 27.2083 23.2988C27.375 23.2988 27.5208 23.2547 27.6458 23.1884H27.6666L31.4791 20.2954C30.0264 18.7843 28.1449 17.822 26.125 17.5569L26.3958 22.5038ZM22.3541 23.1884C22.7083 23.4313 23.1875 23.3651 23.4375 22.9896C23.5416 22.8571 23.5833 22.7025 23.6041 22.5259H23.625L23.875 17.5569C23.5625 17.6011 23.25 17.6674 22.9166 17.7336C21.25 18.1311 19.7083 19.0145 18.5 20.2954L22.3333 23.1884H22.3541ZM20.2916 26.9206C20.7083 26.8102 20.9583 26.3464 20.8333 25.9048C20.8333 25.7281 20.7291 25.5956 20.6041 25.4852V25.4631L17.1041 22.0842C16.0208 23.9834 15.5625 26.1477 15.7916 28.3119L20.2916 26.9427V26.9206ZM23.7083 28.3782L25 29.0407L26.2916 28.3782L26.6041 26.8985L25.7083 25.7281H24.2708L23.375 26.8985L23.7083 28.3782ZM46.3958 31.2933L42.7083 14.3547C42.5208 13.4272 41.9375 12.6763 41.1666 12.2788L26.2291 4.70394C25.4583 4.32851 24.5416 4.32851 23.75 4.70394L8.83329 12.2788C8.06246 12.6763 7.47913 13.4272 7.29163 14.3547L3.60413 31.2933C3.49996 31.735 3.49996 32.1767 3.60413 32.5963C3.62496 32.7288 3.66663 32.8613 3.70829 32.9938C3.77079 33.1925 3.87496 33.4134 3.97913 33.5901C4.04163 33.6784 4.08329 33.7667 4.16663 33.833L14.4791 47.481C14.5208 47.481 14.5833 47.5693 14.5833 47.6135C14.7916 47.8123 14.9791 47.9669 15.1666 48.0994C15.4166 48.276 15.7083 48.4085 16 48.4748C16.2291 48.5852 16.4791 48.5852 16.6666 48.5852H33.5833C33.7291 48.5852 33.875 48.519 34 48.4748C34.1041 48.4527 34.2083 48.4085 34.2916 48.3865C34.375 48.3423 34.4375 48.3202 34.5208 48.276C34.625 48.2319 34.7291 48.1656 34.8333 48.0994C35.0833 47.9227 35.3125 47.7019 35.5208 47.481L35.8333 47.0393L45.8333 33.833C46.0416 33.568 46.1875 33.2809 46.2916 32.9938C46.3333 32.8613 46.375 32.7288 46.3958 32.5963C46.5 32.1767 46.5 31.7129 46.3958 31.2933ZM30.9166 37.8965C30.9583 38.029 31 38.1615 31.0625 38.2719C30.9791 38.4486 30.9375 38.6473 31 38.8461C31.25 39.3761 31.4791 39.862 31.7916 40.3478C31.9583 40.5907 32.125 40.8558 32.2916 41.0987C32.2916 41.1649 32.3541 41.2754 32.375 41.3637C32.625 41.8054 32.5 42.3796 32.0625 42.6667C31.625 42.9538 31.0833 42.7771 30.8333 42.3354C30.8125 42.2691 30.7916 42.225 30.7708 42.1587C30.7291 42.0925 30.6875 41.96 30.6458 41.96C30.5416 41.6287 30.4583 41.3416 30.3958 41.0545C30.2083 40.5024 30.0416 39.9724 29.7708 39.4645C29.6624 39.3116 29.5081 39.2025 29.3333 39.1553L29.1666 38.8019C26.4791 39.862 23.5416 39.862 20.8958 38.7798L20.6875 39.1774C20.5416 39.1994 20.3958 39.2657 20.2916 39.3761C20 39.9061 19.7916 40.4582 19.6041 41.0766C19.5416 41.3637 19.4583 41.6508 19.3541 41.96C19.3125 41.96 19.2708 42.1146 19.2291 42.1808C19.149 42.418 18.9833 42.6118 18.7684 42.7195C18.5535 42.8271 18.3071 42.8399 18.0833 42.755C17.8595 42.6701 17.6767 42.4944 17.5752 42.2666C17.4736 42.0388 17.4615 41.7776 17.5416 41.5404C17.5625 41.4741 17.6041 41.4299 17.625 41.3637C17.7083 41.2974 17.7083 41.187 17.7083 41.1208C17.8958 40.8558 18.0416 40.6128 18.2083 40.3478C18.5416 39.884 18.8125 39.354 19.0208 38.824C19.0413 38.6373 19.0199 38.4481 18.9583 38.2719L19.1041 37.8744C16.6628 36.3391 14.8333 33.9129 13.9583 31.0504L13.5416 31.1166C13.4057 30.9985 13.238 30.9289 13.0625 30.9179C12.5 31.0283 12 31.205 11.4583 31.4037C11.2291 31.5362 10.9583 31.6466 10.6875 31.735C10.625 31.7571 10.5416 31.7792 10.4166 31.8012C10.1927 31.8727 9.95156 31.8507 9.74243 31.7399C9.5333 31.6291 9.37204 31.4377 9.29163 31.205C9.14579 30.697 9.37496 30.167 9.87496 29.9903C9.91663 29.9903 9.97913 29.9682 10.0416 29.9682V29.9462H10.0625L10.2916 29.902C10.5833 29.8137 10.875 29.8137 11.1458 29.8137C11.6875 29.8137 12.2291 29.6812 12.75 29.5486C12.9166 29.4382 13.0416 29.3057 13.1458 29.129L13.5416 29.0186C13.1041 26.0152 13.75 22.9896 15.3333 20.472L15.0416 20.207C15.0416 20.0083 14.9791 19.8095 14.875 19.6549C14.4583 19.2795 14.0208 18.9482 13.5416 18.6611C13.2916 18.5286 13.0416 18.374 12.7916 18.1974C12.75 18.1532 12.6666 18.087 12.625 18.0428L12.6041 18.0207C12.1875 17.6674 12.0833 17.0932 12.375 16.6294C12.5625 16.4086 12.8125 16.2981 13.1041 16.2981C13.3333 16.3202 13.5416 16.4086 13.7291 16.5631L13.9166 16.7177C14.125 16.9165 14.3125 17.1594 14.5 17.3803C14.875 17.7999 15.2708 18.1974 15.7083 18.5286C15.875 18.617 16.0625 18.6391 16.25 18.5949L16.5625 18.8378C18.125 17.0711 20.1666 15.8344 22.3958 15.3043C22.9166 15.1718 23.4791 15.0835 24.0208 15.0393L24.0416 14.6418C24.1855 14.508 24.2873 14.3308 24.3333 14.1339C24.3541 13.5597 24.3125 12.9855 24.2291 12.4334C24.1666 12.1463 24.125 11.8371 24.1041 11.528V11.2629C24.0625 10.7329 24.4166 10.2692 24.9166 10.2029C25.4166 10.1366 25.8333 10.5342 25.8958 11.0421V11.528C25.875 11.8371 25.8333 12.1463 25.7708 12.4334C25.6875 12.9855 25.6458 13.5597 25.6666 14.1339C25.7083 14.3547 25.8125 14.5093 25.9583 14.6197L25.9791 15.0393C28.8125 15.3043 31.4375 16.6515 33.3958 18.8378L33.7291 18.5728C33.9166 18.617 34.1041 18.5949 34.2708 18.5066C34.7083 18.1753 35.125 17.7778 35.4791 17.3582C35.6666 17.1373 35.8541 16.9165 36.0625 16.6957C36.125 16.6515 36.2083 16.5631 36.2708 16.5631C36.625 16.1656 37.1875 16.1656 37.5 16.5631C37.8958 16.9165 37.875 17.5128 37.5 17.8882C37.5 17.9324 37.4375 17.9765 37.375 18.0207C37.0906 18.2601 36.7834 18.4674 36.4583 18.6391C35.9791 18.9262 35.5208 19.2574 35.125 19.6328C35 19.7874 34.9375 19.9641 34.9583 20.1629L34.625 20.472C36.2244 22.9686 36.8789 26.0118 36.4583 28.9965L36.8541 29.107C36.9375 29.2836 37.0833 29.4161 37.25 29.5045C37.7708 29.6591 38.3125 29.7474 38.8541 29.8137H39.7083C39.7708 29.8799 39.875 29.902 39.9583 29.9241C40.4583 29.9903 40.7916 30.4762 40.7291 31.0062C40.625 31.5141 40.2291 31.8896 39.7291 31.8233C39.6666 31.8012 39.5833 31.8012 39.5833 31.7792V31.7571C39.4583 31.7571 39.375 31.735 39.2916 31.7129C39.0208 31.6246 38.7708 31.5141 38.5416 31.3816C38 31.1608 37.5 31.0062 36.9375 30.9179C36.75 30.9179 36.5833 30.9179 36.4583 31.0945C36.3125 31.0725 36.1875 31.0504 36.0625 31.0283C35.2083 33.9213 33.3333 36.3506 30.9166 37.8965Z" fill="#09D3AC"/>
</svg>
