<svg width="50" height="50" viewBox="0 0 50 50" fill="none" xmlns="http://www.w3.org/2000/svg">
<g clip-path="url(#clip0_16_203)">
<path fill-rule="evenodd" clip-rule="evenodd" d="M20.8333 4.16663C22.2926 4.16601 23.7265 4.54862 24.9916 5.27619C26.2566 6.00376 27.3083 7.05076 28.0417 8.31246L28.2458 8.69163L29.575 7.92496C31.1605 7.00912 33.0034 6.64095 34.8191 6.87733C36.6347 7.11371 38.322 7.94149 39.6201 9.23274C40.9183 10.524 41.755 12.2068 42.001 14.0212C42.247 15.8356 41.8886 17.6805 40.9812 19.2708L40.7458 19.6583L42.075 20.425C43.6604 21.3403 44.9002 22.7523 45.603 24.4427C46.3058 26.1331 46.4323 28.0079 45.9632 29.7774C45.494 31.547 44.4552 33.1128 43.0072 34.2329C41.5593 35.3531 39.7827 35.9653 37.9521 35.975L37.5 35.9666V37.5C37.5005 39.3328 36.8968 41.1147 35.7823 42.5698C34.6678 44.0248 33.1046 45.0719 31.3349 45.5488C29.5652 46.0256 27.6876 45.9058 25.9929 45.2077C24.2982 44.5097 22.8809 43.2724 21.9604 41.6875L21.7521 41.3083L20.425 42.075C18.8395 42.9908 16.9965 43.359 15.1809 43.1226C13.3652 42.8862 11.678 42.0584 10.3798 40.7672C9.08172 39.4759 8.24499 37.7931 7.99897 35.9787C7.75295 34.1643 8.11133 32.3194 9.01874 30.7291L9.25415 30.3416L7.92499 29.575C6.3396 28.6596 5.09975 27.2476 4.39698 25.5572C3.69421 23.8668 3.56763 21.992 4.03681 20.2225C4.50598 18.4529 5.54479 16.8871 6.99276 15.767C8.44072 14.6468 10.2173 14.0346 12.0479 14.025L12.5 14.0333V12.5C12.5 10.2898 13.378 8.17021 14.9408 6.6074C16.5036 5.0446 18.6232 4.16663 20.8333 4.16663ZM30.6292 26.6395L30.4875 35.0979C30.4824 35.4116 30.4065 35.7202 30.2654 36.0005C30.1244 36.2808 29.9218 36.5256 29.6729 36.7166L29.4458 36.8666L25.3708 39.2208C25.7549 40.0617 26.4075 40.7511 27.2261 41.1808C28.0446 41.6104 28.9827 41.756 29.893 41.5945C30.8032 41.4331 31.634 40.9738 32.2549 40.2888C32.8757 39.6039 33.2514 38.7321 33.3229 37.8104L33.3333 37.5V28.2625L30.6292 26.6395ZM26.3937 30.6958L18.9979 34.8L18.7521 34.9166C18.2493 35.1153 17.6891 35.1109 17.1896 34.9041L16.9458 34.7833L12.8708 32.4291L12.6833 32.7125C12.221 33.4805 12.0187 34.3771 12.1064 35.2693C12.1941 36.1614 12.5673 37.0014 13.1704 37.6647C13.7735 38.3279 14.5744 38.7789 15.4542 38.9508C16.334 39.1227 17.2458 39.0062 18.0542 38.6187L18.3417 38.4666L26.3417 33.8479L26.3937 30.6958ZM31.9937 19.4145L29.2354 20.9458L36.4896 25.2979L36.7125 25.452C37.1363 25.7882 37.4128 26.2761 37.4833 26.8125L37.5 27.0833V31.7916L37.8375 31.8083C38.7333 31.8243 39.6104 31.5511 40.3387 31.0293C41.067 30.5075 41.6077 29.7649 41.8806 28.9115C42.1535 28.0582 42.1441 27.1396 41.8538 26.292C41.5634 25.4444 41.0076 24.713 40.2687 24.2062L39.9917 24.0333L31.9937 19.4145ZM12.5 18.2104C11.5803 18.121 10.657 18.3396 9.87507 18.8321C9.09318 19.3245 8.49705 20.0627 8.18035 20.9308C7.86366 21.7988 7.84434 22.7475 8.12544 23.6278C8.40654 24.508 8.97212 25.2699 9.73332 25.7937L10.0083 25.9666L18.0083 30.5854L20.7646 29.0541L13.5125 24.7041C13.2433 24.5426 13.014 24.3222 12.842 24.0596C12.6699 23.7969 12.5594 23.4988 12.5187 23.1875L12.5 22.9166V18.2104ZM25.0292 23.2812L23.525 24.1145L23.4958 25.8354L24.9708 26.7208L26.475 25.8854L26.5042 24.1645L25.0292 23.2812ZM20.8333 8.33329C19.7821 8.33296 18.7696 8.72997 17.9988 9.44475C17.2281 10.1595 16.7559 11.1392 16.6771 12.1875L16.6667 12.5V21.7375L19.3708 23.3604L19.5125 14.902L19.5333 14.6312C19.6128 14.0959 19.8974 13.6124 20.3271 13.2833L20.5542 13.1333L24.6312 10.7791L24.4896 10.4979C24.1304 9.84226 23.6014 9.29536 22.9581 8.91452C22.3148 8.53367 21.5809 8.33292 20.8333 8.33329ZM37.35 13.0583C36.8257 12.1499 35.978 11.4726 34.9762 11.1617C33.9745 10.8509 32.8923 10.9292 31.9458 11.3812L31.6583 11.5333L23.6583 16.152L23.6062 19.3041L31.0021 15.2C31.2762 15.0476 31.5812 14.9591 31.8943 14.9411C32.2074 14.923 32.5206 14.9759 32.8104 15.0958L33.0542 15.2166L37.1312 17.5708C38.0521 16.2791 38.1937 14.5187 37.35 13.0583Z" fill="#09D3AC"/>
</g>
<defs>
<clipPath id="clip0_16_203">
<rect width="50" height="50" fill="white"/>
</clipPath>
</defs>
</svg>
