<svg width="50" height="50" viewBox="0 0 50 50" fill="none" xmlns="http://www.w3.org/2000/svg">
<g clip-path="url(#clip0_16_207)">
<path d="M45.1354 24.6083C44.9063 21.7381 44.1433 18.9359 42.8854 16.3458L50 13.7479C49.4398 12.5869 48.7826 11.4754 48.0354 10.4249L44.7 11.6395C41.7854 7.55904 37.6144 4.54556 32.825 3.05996C28.0356 1.57437 22.8914 1.69845 18.1792 3.41323C13.4669 5.12801 9.44611 8.33909 6.73161 12.5554C4.01711 16.7716 2.75837 21.761 3.14792 26.7604L6.48958 25.5437C6.59653 26.827 6.80833 28.0923 7.125 29.3395L0 31.9479C0.705589 34.7378 1.92118 37.3731 3.58542 39.7208L7.36042 38.3479C14.7062 48.6604 29.0229 51.0687 39.3375 43.7229C42.5776 41.4162 45.1616 38.3059 46.8354 34.6979C48.5066 31.1246 49.2182 27.1777 48.9 23.2458L45.1354 24.6083ZM35.2604 19.1187C36.6889 21.6765 37.3371 24.5967 37.125 27.5187L40.8937 26.15C40.7646 27.9339 40.3084 29.6789 39.5479 31.2979C37.8767 34.8837 34.8506 37.6596 31.1342 39.0158C27.4178 40.3721 23.3151 40.1978 19.7271 38.5312C18.0977 37.77 16.6207 36.7181 15.3687 35.427L11.5917 36.802C9.55222 34.6975 8.17395 32.0416 7.62708 29.1625L14.7646 26.5749C14.5084 25.2749 14.4306 23.946 14.5333 22.625H14.5208L11.1792 23.8395C11.3593 21.4357 12.1209 19.1116 13.3985 17.0673C14.676 15.0231 16.4313 13.32 18.5131 12.1046C20.5949 10.8893 22.9409 10.1981 25.3492 10.0906C27.7574 9.98307 30.1557 10.4624 32.3375 11.4874V11.4749C33.9583 12.2339 35.428 13.2807 36.675 14.5645L40.0062 13.352L40.0187 13.3624C40.9375 14.3083 41.7271 15.3729 42.3687 16.525L35.2604 19.1187Z" fill="#09D3AC"/>
</g>
<defs>
<clipPath id="clip0_16_207">
<rect width="50" height="50" fill="white"/>
</clipPath>
</defs>
</svg>
