<svg width="50" height="53" viewBox="0 0 50 53" fill="none" xmlns="http://www.w3.org/2000/svg">
<g clip-path="url(#clip0_16_181)">
<mask id="mask0_16_181" style="mask-type:luminance" maskUnits="userSpaceOnUse" x="0" y="0" width="50" height="54">
<path d="M0 0H50V53.002H0V0Z" fill="white"/>
</mask>
<g mask="url(#mask0_16_181)">
<path d="M24.8208 0C12.125 0 12.9167 5.86556 12.9167 5.86556L12.9313 11.9431H25.0438V13.7673H8.125C8.125 13.7673 0 12.7845 0 26.4326C0 40.0806 7.08958 39.5947 7.08958 39.5947H11.3188V33.2632C11.3188 33.2632 11.0917 25.7104 18.2979 25.7104H30.3104C30.3104 25.7104 37.0604 25.8252 37.0604 18.7583V7.07136C37.0604 7.07136 38.0854 0 24.8208 0ZM18.1417 4.08557C19.3458 4.08557 20.3208 5.12353 20.3208 6.40883C20.3208 7.69192 19.3458 8.72988 18.1417 8.72988C16.9354 8.72988 15.9625 7.69192 15.9625 6.40883C15.9625 5.12353 16.9354 4.08557 18.1417 4.08557Z" fill="#09D3AC"/>
<path d="M25.1812 53.002C37.8729 53.002 37.0812 47.1365 37.0812 47.1365L37.0666 41.0589H24.9541V39.2348H41.8771C41.8771 39.2348 50.0021 40.2175 50.0021 26.5695C50.0021 12.9214 42.9104 13.4073 42.9104 13.4073H38.6812V19.7388C38.6812 19.7388 38.9083 27.2916 31.7021 27.2916H19.6916C19.6916 27.2916 12.9416 27.1768 12.9416 34.2437V45.9307C12.9416 45.9307 11.9166 53.002 25.1812 53.002ZM31.8604 48.9165C30.6541 48.9165 29.6812 47.8785 29.6812 46.5932C29.6812 45.3101 30.6541 44.2722 31.8604 44.2722C33.0646 44.2722 34.0396 45.3101 34.0396 46.5932C34.0396 47.8785 33.0646 48.9165 31.8604 48.9165Z" fill="#09D3AC"/>
</g>
</g>
<defs>
<clipPath id="clip0_16_181">
<rect width="50" height="53.002" fill="white"/>
</clipPath>
</defs>
</svg>
