<svg width="50" height="53" viewBox="0 0 50 53" fill="none" xmlns="http://www.w3.org/2000/svg">
<path d="M15.9166 22.9234C15.9166 23.4755 15.9583 23.9172 16.0625 24.2926C16.1666 24.5576 16.3125 24.911 16.5 25.3085C16.5833 25.3968 16.6041 25.5293 16.6041 25.6398C16.6041 25.7943 16.5208 25.9269 16.3333 26.0814L15.4583 26.6998C15.3333 26.7881 15.2083 26.8323 15.1041 26.8323C14.9583 26.8323 14.8333 26.744 14.6875 26.6115C14.5 26.3906 14.3333 26.1698 14.1875 25.9269C14.0625 25.6839 13.9166 25.3968 13.7708 25.0656C12.6875 26.4127 11.3333 27.0973 9.68747 27.0973C8.5208 27.0973 7.60414 26.744 6.91664 26.0373C6.24997 25.3306 5.8958 24.381 5.8958 23.1884C5.8958 21.9738 6.31247 20.98 7.1458 20.185C7.99997 19.4341 9.12497 19.0366 10.5416 19.0366C11.0208 19.0366 11.4583 19.0808 12.0208 19.1691C12.5 19.2353 13.0625 19.3458 13.6041 19.4783V18.4182C13.6041 17.2919 13.3958 16.5632 12.9583 16.0552C12.5 15.5915 11.7708 15.3927 10.7083 15.3927C10.2083 15.3927 9.7083 15.4589 9.2083 15.5694C8.68747 15.7019 8.18747 15.8565 7.7083 16.0773C7.47914 16.1656 7.29164 16.2319 7.22914 16.254C7.12497 16.2981 7.06247 16.2981 6.99997 16.2981C6.81247 16.2981 6.7083 16.1656 6.7083 15.8565V15.1277C6.7083 14.9068 6.72914 14.7302 6.81247 14.6197C6.87497 14.5093 6.99997 14.421 7.18747 14.3547C7.68747 14.0456 8.24997 13.8247 8.93747 13.648C9.64469 13.452 10.3732 13.3555 11.1041 13.361C12.75 13.361 13.9583 13.7585 14.7291 14.5535C15.5 15.3485 15.875 16.5632 15.875 18.1753V22.9234H15.9166ZM10.2916 25.176C10.75 25.176 11.2083 25.0877 11.7083 24.911C12.2083 24.7343 12.6458 24.403 13.0208 23.9614C13.25 23.6743 13.4166 23.3651 13.5416 23.0117C13.5416 22.6584 13.6458 22.2388 13.6458 21.7309V21.1346C13.2291 20.98 12.8125 20.98 12.3541 20.8696C11.925 20.8199 11.494 20.7904 11.0625 20.7812C10.125 20.7812 9.4583 20.98 8.99997 21.3775C8.54164 21.775 8.3333 22.3271 8.3333 23.0559C8.3333 23.7626 8.47914 24.2926 8.8333 24.6239C9.16664 24.9993 9.6458 25.176 10.2916 25.176ZM21.4166 26.744C21.215 26.7504 21.0148 26.7049 20.8333 26.6115C20.7708 26.501 20.6666 26.3023 20.5833 26.0373L17.3333 14.686C17.25 14.3547 17.2083 14.2002 17.2083 14.0897C17.2083 13.8468 17.3125 13.7143 17.5416 13.7143H18.8958C19.1666 13.7143 19.3541 13.7585 19.4375 13.8689C19.5625 13.9572 19.6458 14.156 19.7291 14.4431L22.0416 24.1601L24.2083 14.4431C24.2708 14.156 24.3541 13.9572 24.4791 13.8689C24.5833 13.7806 24.7708 13.7143 25 13.7143H26.1458C26.3958 13.7143 26.5833 13.7585 26.6875 13.8689C26.7916 13.9572 26.8958 14.156 26.9583 14.4431L29.1666 24.2926L31.5416 14.4431C31.625 14.156 31.7291 13.9572 31.8125 13.8689C31.9375 13.7806 32.1041 13.7143 32.3541 13.7143H33.6458C33.875 13.7143 34 13.8468 34 14.0897C34 14.156 33.9791 14.2443 33.9583 14.3547C33.9583 14.3547 33.9166 14.5314 33.875 14.686L30.5208 26.0373C30.4375 26.3465 30.3541 26.501 30.2083 26.6115C30.125 26.6998 29.9375 26.7661 29.7083 26.7661H28.5208C28.25 26.7661 28.125 26.7219 27.9583 26.6115C27.8182 26.454 27.7304 26.2524 27.7083 26.0373L25.5625 16.5632L23.4166 26.0152C23.3541 26.3023 23.2708 26.501 23.1666 26.6115C22.9946 26.7108 22.7997 26.7567 22.6041 26.744H21.4166ZM39.2291 27.1415C38.5416 27.1415 37.7708 27.0531 37.0833 26.8765C36.3958 26.6998 35.8541 26.501 35.5 26.3023C35.319 26.21 35.1671 26.0643 35.0625 25.8827C35.0059 25.7589 34.9773 25.6227 34.9791 25.4852V24.7343C34.9791 24.4251 35.0833 24.2926 35.2916 24.2926H35.5416C35.625 24.2926 35.75 24.403 35.8958 24.4693C36.3541 24.6901 36.875 24.8668 37.4166 24.9772C37.9791 25.0877 38.5416 25.1539 39.0625 25.1539C39.9375 25.1539 40.625 24.9993 41.0833 24.6681C41.5625 24.2926 41.8125 23.873 41.8125 23.2768C41.8125 22.8572 41.6666 22.5259 41.4375 22.2388C41.1875 21.9738 40.7083 21.7088 40.0416 21.4879L38.0208 20.8254C37.0208 20.4721 36.2708 19.9862 35.8125 19.3237C35.3652 18.7104 35.1233 17.9567 35.125 17.1815C35.125 16.5632 35.25 16.0331 35.5 15.5694C35.75 15.0835 36.0833 14.686 36.4583 14.3547C36.9166 14.0235 37.375 13.7806 37.9375 13.6039C38.4791 13.4272 39.0625 13.3389 39.6875 13.3389C39.9791 13.3389 40.2916 13.361 40.625 13.4051C40.9166 13.4493 41.2083 13.5155 41.5 13.5597C41.7916 13.648 42.0416 13.7143 42.2916 13.8026C42.5416 13.891 42.7083 13.9793 42.875 14.0676C43.0625 14.1781 43.2083 14.2885 43.2916 14.421C43.375 14.5535 43.4166 14.7081 43.4166 14.9068V15.6135C43.4166 15.9227 43.3125 16.0773 43.1041 16.0773C43 16.0773 42.8125 16.0111 42.5625 15.9006C41.7916 15.5252 40.8958 15.3264 39.9166 15.3264C39.125 15.3264 38.5416 15.4589 38.0625 15.746C37.6458 16.0111 37.4166 16.4527 37.4166 17.049C37.4166 17.4686 37.5625 17.822 37.8333 18.087C38.1041 18.3741 38.625 18.6391 39.3541 18.9041L41.3333 19.5666C42.3333 19.8758 43.0416 20.3616 43.4791 20.98C43.8958 21.5763 44.1041 22.2609 44.1041 23.0338C44.1041 23.6522 43.9791 24.2264 43.75 24.7343C43.5 25.2202 43.1666 25.6618 42.7083 26.0152C42.3125 26.3906 41.7916 26.6556 41.2083 26.8544C40.625 27.0531 39.9166 27.1415 39.2291 27.1415ZM41.8333 34.2968C37.2708 37.8523 30.6458 39.7516 25 39.7516C16.9791 39.7516 9.79164 36.6156 4.35414 31.4258C3.91664 31.0062 4.31247 30.4541 4.8333 30.7854C10.7083 34.3851 17.9375 36.5714 25.4375 36.5714C30.5 36.5714 36.0625 35.4672 41.1666 33.1263C41.9375 32.795 42.5833 33.7005 41.8333 34.2968ZM43.75 32.0221C43.1458 31.205 39.875 31.6246 38.3958 31.8012C37.9583 31.8675 37.8958 31.4479 38.2916 31.1387C40.8958 29.2174 45.1875 29.8137 45.6666 30.4099C46.1666 31.0725 45.5416 35.6218 43.1041 37.7861C42.7083 38.1173 42.3541 37.9407 42.5208 37.5431C43.0833 36.0414 44.3125 32.773 43.75 32.0221Z" fill="#09D3AC"/>
</svg>
