<svg width="50" height="50" viewBox="0 0 50 50" fill="#28536B" xmlns="http://www.w3.org/2000/svg">
<path d="M25 43.75C19.7917 43.75 15.3646 41.9271 11.7188 38.2812C8.07292 34.6354 6.25 30.2083 6.25 25C6.25 19.7917 8.07292 15.3646 11.7188 11.7188C15.3646 8.07292 19.7917 6.25 25 6.25C25.4861 6.25 25.9639 6.26736 26.4333 6.30208C26.9028 6.33681 27.3625 6.38889 27.8125 6.45833C26.3889 7.46528 25.2514 8.77639 24.4 10.3917C23.5486 12.0069 23.1236 13.7514 23.125 15.625C23.125 18.75 24.2188 21.4062 26.4062 23.5937C28.5938 25.7812 31.25 26.875 34.375 26.875C36.2847 26.875 38.0382 26.4493 39.6354 25.5979C41.2326 24.7465 42.5347 23.6097 43.5417 22.1875C43.6111 22.6389 43.6632 23.0986 43.6979 23.5667C43.7326 24.0347 43.75 24.5125 43.75 25C43.75 30.2083 41.9271 34.6354 38.2812 38.2812C34.6354 41.9271 30.2083 43.75 25 43.75Z"/>
</svg>
