<svg width="50" height="53" viewBox="0 0 50 53" fill="none" xmlns="http://www.w3.org/2000/svg">
<path d="M45.4375 22.6363C45.3125 22.5479 44.2708 21.6866 42.0208 21.6866C41.4375 21.6866 40.8541 21.7529 40.2708 21.8633C39.8333 18.7715 37.3958 17.2035 37.2916 17.1373L36.6875 16.7619L36.3125 17.3581C35.8125 18.1532 35.4166 19.0586 35.25 19.9862C34.8333 21.7529 35.0833 23.4313 35.9375 24.8668C34.9166 25.4851 33.25 25.6397 32.8958 25.6397H5.45829C4.74996 25.6397 4.16663 26.2581 4.16663 27.031C4.16663 29.5707 4.54163 32.1104 5.37496 34.4955C6.31246 37.1235 7.72913 39.0669 9.54163 40.2594C11.5833 41.5845 14.9375 42.3353 18.75 42.3353C20.3958 42.3353 22.1041 42.1808 23.7916 41.8495C26.125 41.4078 28.375 40.5465 30.4375 39.2877C32.1456 38.2523 33.6745 36.9154 34.9583 35.3347C37.1458 32.7508 38.4375 29.8136 39.375 27.2739H39.7708C42.1458 27.2739 43.625 26.2581 44.4375 25.3968C44.9791 24.8668 45.375 24.2263 45.6666 23.4755L45.8333 22.9454L45.4375 22.6363ZM8.02079 24.8226H11.6875C11.8541 24.8226 12.0208 24.668 12.0208 24.4692V20.9799C12.0208 20.8033 11.875 20.6266 11.6875 20.6266H8.02079C7.83329 20.6266 7.68746 20.7812 7.68746 20.9799V24.4692C7.70829 24.668 7.83329 24.8226 8.02079 24.8226ZM13.0833 24.8226H16.75C16.9166 24.8226 17.0833 24.668 17.0833 24.4692V20.9799C17.0833 20.8033 16.9375 20.6266 16.75 20.6266H13.0833C12.8958 20.6266 12.75 20.7812 12.75 20.9799V24.4692C12.7708 24.668 12.8958 24.8226 13.0833 24.8226ZM18.2291 24.8226H21.875C22.0833 24.8226 22.2291 24.668 22.2291 24.4692V20.9799C22.2291 20.8033 22.1041 20.6266 21.875 20.6266H18.2291C18.0625 20.6266 17.9166 20.7812 17.9166 20.9799V24.4692C17.9166 24.668 18.0416 24.8226 18.2291 24.8226ZM23.3125 24.8226H27C27.1666 24.8226 27.3125 24.668 27.3125 24.4692V20.9799C27.3125 20.8033 27.1875 20.6266 27 20.6266H23.3125C23.1458 20.6266 23 20.7812 23 20.9799V24.4692C23 24.668 23.1458 24.8226 23.3125 24.8226ZM13.0833 19.8757H16.75C16.9166 19.8757 17.0833 19.677 17.0833 19.4782V16.011C17.0833 15.8122 16.9375 15.6577 16.75 15.6577H13.0833C12.8958 15.6577 12.75 15.7902 12.75 16.011V19.4782C12.7708 19.677 12.8958 19.8757 13.0833 19.8757ZM18.2291 19.8757H21.875C22.0833 19.8757 22.2291 19.677 22.2291 19.4782V16.011C22.2291 15.8122 22.1041 15.6577 21.875 15.6577H18.2291C18.0625 15.6577 17.9166 15.7902 17.9166 16.011V19.4782C17.9166 19.677 18.0416 19.8757 18.2291 19.8757ZM23.3125 19.8757H27C27.1666 19.8757 27.3125 19.677 27.3125 19.4782V16.011C27.3125 15.8122 27.1666 15.6577 27 15.6577H23.3125C23.1458 15.6577 23 15.7902 23 16.011V19.4782C23 19.677 23.1458 19.8757 23.3125 19.8757ZM23.3125 14.8405H27C27.1666 14.8405 27.3125 14.6859 27.3125 14.4872V11.0421C27.3125 10.8212 27.1666 10.6666 27 10.6666H23.3125C23.1458 10.6666 23 10.7991 23 11.0421V14.4872C23 14.6639 23.1458 14.8405 23.3125 14.8405ZM28.4375 24.8226H32.1041C32.2916 24.8226 32.4375 24.668 32.4375 24.4692V20.9799C32.4375 20.8033 32.2916 20.6266 32.1041 20.6266H28.4375C28.2708 20.6266 28.125 20.7812 28.125 20.9799V24.4692C28.125 24.668 28.2708 24.8226 28.4375 24.8226Z" fill="#09D3AC"/>
</svg>
