<svg width="31" height="30" viewBox="0 0 31 30" fill="#92AEBE" xmlns="http://www.w3.org/2000/svg">
<path d="M15.3768 0C13.3575 0 11.358 0.397619 9.49238 1.17015C7.62677 1.94269 5.93164 3.07501 4.50377 4.50247C1.62006 7.38536 0 11.2954 0 15.3724C0 22.167 4.41315 27.9317 10.5178 29.9762C11.2866 30.0992 11.5326 29.6226 11.5326 29.2076V26.6096C7.27324 27.532 6.36601 24.5497 6.36601 24.5497C5.65868 22.7665 4.65918 22.29 4.65918 22.29C3.25989 21.3369 4.76682 21.3676 4.76682 21.3676C6.3045 21.4752 7.11948 22.951 7.11948 22.951C8.45726 25.2876 10.7177 24.5958 11.5941 24.2269C11.7325 23.2277 12.1323 22.5513 12.5629 22.167C9.14922 21.7827 5.56642 20.4607 5.56642 14.6038C5.56642 12.8974 6.15074 11.5293 7.15023 10.4379C6.99646 10.0536 6.45827 8.45482 7.304 6.37955C7.304 6.37955 8.59565 5.96449 11.5326 7.94753C12.7474 7.60934 14.0698 7.44024 15.3768 7.44024C16.6839 7.44024 18.0063 7.60934 19.221 7.94753C22.158 5.96449 23.4497 6.37955 23.4497 6.37955C24.2954 8.45482 23.7572 10.0536 23.6034 10.4379C24.6029 11.5293 25.1873 12.8974 25.1873 14.6038C25.1873 20.476 21.5891 21.7673 18.16 22.1516C18.7136 22.6282 19.221 23.5659 19.221 24.9955V29.2076C19.221 29.6226 19.4671 30.1145 20.2513 29.9762C26.3559 27.9163 30.7537 22.167 30.7537 15.3724C30.7537 13.3537 30.3559 11.3547 29.5832 9.48964C28.8104 7.62457 27.6778 5.92993 26.2499 4.50247C24.822 3.07501 23.1269 1.94269 21.2613 1.17015C19.3957 0.397619 17.3962 0 15.3768 0Z"/>
</svg>
