<svg width="50" height="53" viewBox="0 0 50 53" fill="none" xmlns="http://www.w3.org/2000/svg">
<path d="M32.5792 10.0836L32.6958 10.1543C31.1167 11.0376 26.6042 13.8865 26.6042 17.5127C26.6042 18.7362 27.2646 19.9155 27.8833 21.0241C28.4292 22.0002 28.9437 22.9189 28.9437 23.7581C28.9437 25.8716 27 27.5124 25.9021 28.2677L25.6937 28.1396C26.1083 27.603 26.6187 26.7042 26.6187 25.7457C26.6187 24.4251 25.9792 23.3694 25.3312 22.2984C24.6604 21.1919 23.9812 20.0679 23.9812 18.6103C23.9812 13.5486 30.4708 10.8322 32.5792 10.0836ZM24.0479 12.7602C26.6583 10.2868 29.5104 7.58366 29.5104 3.51797C29.5104 1.67835 28.8 0.503474 28.4479 0.0330811L28.3333 0.101542C28.4167 0.468139 28.5417 1.14392 28.5417 2.02728C28.5417 5.72859 25.5792 8.32128 22.7125 10.8345C20.0229 13.193 17.4167 15.4766 17.4167 18.533C17.4167 22.9167 21.4958 25.6132 23.2187 26.7527L23.35 26.8411L23.4542 26.7748C23.3573 26.6612 23.2587 26.5493 23.1583 26.4391C21.8333 24.944 19.8208 22.676 19.8208 19.2066C19.8208 16.7707 21.8479 14.8472 24.0479 12.7602ZM23.1083 34.6412C26.7833 34.6412 29.3542 34.0825 30.4958 33.7402L32.2292 34.8002C30.5771 35.6902 26.9146 36.3682 23.1 36.3682C18.6146 36.3682 13.7104 35.3479 13.6958 33.9875C13.6854 33.2367 15.2896 32.7376 17.0187 32.4151L17.1229 32.4792C17.1229 32.4792 16.5375 32.7022 16.5437 33.2146C16.5521 33.9875 19.5021 34.6412 23.1062 34.6412M15.7542 39.4357C15.7542 38.5369 17.5021 38.1106 18.3021 37.9406L18.4062 38.0068C18.2687 38.1151 18.1937 38.263 18.1937 38.3889C18.1937 38.9785 20.1312 39.5174 23.1021 39.5174C25.7646 39.5174 27.2437 39.1707 28.1229 38.9476L30.1854 40.2131C30.0917 40.2837 28.0604 41.6375 23.0979 41.6375C19.4917 41.6375 15.7542 40.6834 15.7542 39.4357ZM33.5229 35.6195C35.9812 34.1333 38.4417 32.3754 38.5812 29.553C38.6729 27.7001 37.0667 26.342 35.3104 26.7042L35.4042 26.4568V26.4524C35.8458 26.3111 36.3917 26.1962 37.0021 26.1962C38.9667 26.1962 40.4729 27.444 40.6646 29.1908C41.0521 32.6934 36.3687 34.9725 33.7458 35.7565L33.5229 35.6195ZM37.6375 42.2183C37.6583 44.6255 29.9333 46.0565 23.0292 46.1206C17.0687 46.1758 7.45833 44.9832 7.4375 42.5761C7.425 40.9131 11.6042 39.7625 13.875 39.4313L14.1146 39.5748C14.1146 39.5748 10.7292 40.4074 10.7396 41.9202C10.7521 43.4285 17.875 44.7337 23.0187 44.6873C30.9875 44.6122 36.3812 43.2364 37.0187 41.3703L37.1312 41.3018C37.3646 41.4829 37.6312 41.781 37.6375 42.2183ZM13.3958 47.121C16.3436 47.6204 19.3253 47.8605 22.3104 47.8387C35.2437 47.7195 38.8937 44.3494 39.4562 43.6162L39.5542 43.6781C39.4208 46.3458 32.5812 48.5631 24.1458 48.6404C19.8521 48.6801 15.9437 48.1545 13.1354 47.2822L13.3958 47.121ZM18.8167 26.6202C16.5687 26.8035 11.7417 27.561 11.7417 28.9082C11.7417 29.9284 16.1667 31.3661 23.1 31.3661C29.3375 31.3661 33.275 30.1184 34.1937 29.6436L32.8542 28.8154C31.8958 29.0915 28.3354 29.9329 23.1 29.9329C20.0167 29.9329 14.7042 29.33 14.7042 28.4091C14.7042 27.5831 18.0187 26.9471 18.9708 26.7638L19.0312 26.7527L18.8167 26.6202Z" fill="#09D3AC"/>
</svg>