<svg width="50" height="50" viewBox="0 0 50 50" fill="#fff" xmlns="http://www.w3.org/2000/svg">
<path  d="M25 35.4166C22.1181 35.4166 19.6618 34.4006 17.6313 32.3687C15.6007 30.3367 14.5848 27.8805 14.5834 24.9999C14.582 22.1194 15.598 19.6631 17.6313 17.6312C19.6646 15.5992 22.1209 14.5833 25 14.5833C27.8792 14.5833 30.3362 15.5992 32.3709 17.6312C34.4056 19.6631 35.4209 22.1194 35.4167 24.9999C35.4125 27.8805 34.3966 30.3374 32.3688 32.3708C30.341 34.4041 27.8848 35.4194 25 35.4166ZM10.4167 27.0833H2.08337V22.9166H10.4167V27.0833ZM47.9167 27.0833H39.5834V22.9166H47.9167V27.0833ZM22.9167 10.4166V2.08325H27.0834V10.4166H22.9167ZM22.9167 47.9166V39.5833H27.0834V47.9166H22.9167ZM13.3334 16.1458L8.07296 11.0937L11.0417 8.02075L16.0417 13.2291L13.3334 16.1458ZM38.9584 41.9791L33.9063 36.7187L36.6667 33.8541L41.9271 38.9062L38.9584 41.9791ZM33.8542 13.3333L38.9063 8.07283L41.9792 11.0416L36.7709 16.0416L33.8542 13.3333ZM8.02087 38.9583L13.2813 33.9062L16.1459 36.6666L11.0938 41.927L8.02087 38.9583Z"/>
</svg>
