<svg width="32" height="30" viewBox="0 0 32 30" fill="#92AEBE" xmlns="http://www.w3.org/2000/svg">
<path d="M27.752 0C28.6583 0 29.5274 0.351189 30.1682 0.976311C30.8091 1.60143 31.1691 2.44928 31.1691 3.33333V26.6667C31.1691 27.5507 30.8091 28.3986 30.1682 29.0237C29.5274 29.6488 28.6583 30 27.752 30H3.83248C2.92622 30 2.05707 29.6488 1.41624 29.0237C0.775417 28.3986 0.415405 27.5507 0.415405 26.6667V3.33333C0.415405 2.44928 0.775417 1.60143 1.41624 0.976311C2.05707 0.351189 2.92622 0 3.83248 0H27.752ZM26.8977 25.8333V17C26.8977 15.559 26.3109 14.177 25.2664 13.1581C24.2218 12.1391 22.8051 11.5667 21.3279 11.5667C19.8756 11.5667 18.1842 12.4333 17.3641 13.7333V11.8833H12.5973V25.8333H17.3641V17.6167C17.3641 16.3333 18.4234 15.2833 19.739 15.2833C20.3734 15.2833 20.9818 15.5292 21.4303 15.9668C21.8789 16.4043 22.1309 16.9978 22.1309 17.6167V25.8333H26.8977ZM7.04453 9.26667C7.80579 9.26667 8.53588 8.97167 9.07417 8.44657C9.61246 7.92146 9.91487 7.20927 9.91487 6.46667C9.91487 4.91667 8.63347 3.65 7.04453 3.65C6.27874 3.65 5.54431 3.94675 5.00281 4.47498C4.46131 5.00321 4.1571 5.71964 4.1571 6.46667C4.1571 8.01667 5.45559 9.26667 7.04453 9.26667ZM9.4194 25.8333V11.8833H4.68675V25.8333H9.4194Z"/>
</svg>
