<svg width="31" height="30" viewBox="0 0 31 30" fill="#92AEBE" xmlns="http://www.w3.org/2000/svg">
<path d="M4.63972 0C2.2165 0 0.246338 1.92187 0.246338 4.28571V25.7143C0.246338 28.0781 2.2165 30 4.63972 30H26.6066C29.0299 30 31 28.0781 31 25.7143V4.28571C31 1.92187 29.0299 0 26.6066 0H4.63972ZM25.0346 5.625L17.9091 13.567L26.2909 24.375H19.7282L14.5935 17.8192L8.71046 24.375H5.44975L13.0695 15.8772L5.03101 5.625H11.7584L16.4057 11.6183L21.7739 5.625H25.0346ZM22.4398 22.4732L10.7767 7.42634H8.83403L20.6275 22.4732H22.4329H22.4398Z"/>
</svg>
